<svg xmlns="http://www.w3.org/2000/svg" width="2048" height="847.02" viewBox="0 0 18849.43 7799.46"><path fill-rule="evenodd" d="M2260.14-15399.54v7799.27l-743.46-.55v-6372.49l-697.94-515.87v6887.94l-743.43.42-.03-7798.72h743.49l697.91 505.76v-505.76zm1709.45 0v7798.72h738.4v-6878.24l662.53 485.52v6392.72h743.46v-6392.72l662.54-485.53v6878.25h738.4v-7798.72h-738.4l-1034.41 753.58-1044.24-753.58M9517.7-7600.82v-7798.72l738.4-.19v7798.91zm8046.54-4233.15h-743.46l-5.06-3565.57h748.44zm-10.11 0h10.11v-15.18l617.02-652.42v-2897.97h743.46v3565.57h-733.34v652.34l733.34.08v3580.73h-743.47l.01-3565.56-617.02 667.59q-.3 2908.19 0 2897.97h-743.46v-3580.73l733.35-.06zm-5295.24-3565.57v3565.57h733.34v652.42h-733.34v3580.73h743.45v-3565.56l611.96 667.59v2897.64l743.46-.08v-3580.32h-733.34v-652.42h733.34v-3565.57h-743.46l.15 3550.39-612.11-662.53v-2887.86z" style="fill:#fff;stroke:#000;stroke-linecap:round;stroke-linejoin:round;stroke-width:0" transform="translate(-75.284 15399.732)"/></svg>